<?xml version="1.0" encoding="UTF-8" standalone="no"?>
<!-- Created with Inkscape (http://www.inkscape.org/) -->

<svg
   xmlns:dc="http://purl.org/dc/elements/1.1/"
   xmlns:cc="http://creativecommons.org/ns#"
   xmlns:rdf="http://www.w3.org/1999/02/22-rdf-syntax-ns#"
   xmlns:svg="http://www.w3.org/2000/svg"
   xmlns="http://www.w3.org/2000/svg"
   xmlns:sodipodi="http://sodipodi.sourceforge.net/DTD/sodipodi-0.dtd"
   xmlns:inkscape="http://www.inkscape.org/namespaces/inkscape"
   version="1.1"
   width="311.39999"
   height="309.70493"
   viewBox="0 0 311.4 309.70493"
   id="master-artboard"
   inkscape:version="0.48.4 r9939"
   sodipodi:docname="driver-gqlobj-helmet.svg">
  <sodipodi:namedview
     pagecolor="#ffffff"
     bordercolor="#666666"
     borderopacity="1"
     objecttolerance="10"
     gridtolerance="10"
     guidetolerance="10"
     inkscape:pageopacity="0"
     inkscape:pageshadow="2"
     inkscape:window-width="1215"
     inkscape:window-height="776"
     id="namedview9"
     showgrid="false"
     fit-margin-top="50"
     fit-margin-right="50"
     fit-margin-bottom="50"
     fit-margin-left="50"
     inkscape:zoom="1.1253909"
     inkscape:cx="155.7"
     inkscape:cy="154.85242"
     inkscape:window-x="65"
     inkscape:window-y="24"
     inkscape:window-maximized="1"
     inkscape:current-layer="master-artboard" />
  <metadata
     id="metadata3067">
    <rdf:RDF>
      <cc:Work
         rdf:about="">
        <dc:format>image/svg+xml</dc:format>
        <dc:type
           rdf:resource="http://purl.org/dc/dcmitype/StillImage" />
        <dc:title />
      </cc:Work>
    </rdf:RDF>
  </metadata>
  <defs
     id="defs3065" />
  <path
     d="m 156.3,180.8 c -16.7,-7.6 -35.5,-16.2 -35.5,-35.4 0,-15.1 12.3,-27.3 27.3,-27.3 H 249.2 C 231,77.499999 197.9,50 153,50 96.100001,50 50.000001,92.099999 50.000001,153 c 0,55.5 37.9,75.7 83.799999,89.6 46.8,14.3 96.3,25.1 114,9.3 6.4,-5.7 10.7,-13.3 13.6,-22.1 -23.6,-11 -79.2,-37 -100.8,-47.1 -1.5,-0.6 -2.9,-1.3 -4.3,-1.9 z"
     id="path3055"
     style="fill:#2f93e0"
     inkscape:connector-curvature="0" />
  <path
     d="M 260.6,153.00001 C 259,145.6 257,138.5 254.6,131.7 H 148.1 c -7.6,0 -13.7,6.2 -13.7,13.7 0,9.70001 10.9,15.40001 27.6,23.00001 1.4,0.6 2.8,1.3 4.2,1.9 20.9,9.7 73.3,34.2 98.2,45.9 3.1,-20.5 0.3,-44.2 -3.8,-63.2 z m -89.4,12.1 L 195.7,138.4 h 28.4 l -33,36.00001 c -7.8,-3.6 -14.7,-6.8 -19.9,-9.3 z m 37.9,17.7 c -3.2,-1.5 -6.3,-2.9 -9.3,-4.4 L 236.5,138.4 h 13.3 l -40.7,44.40001 z"
     id="path3057"
     style="fill:#2f93e0"
     inkscape:connector-curvature="0" />
  <path
     d="M 914.33519,212.64198"
     id="path3059"
     style="fill:#ffcb05;fill-opacity:1;stroke:#000000;stroke-width:0;stroke-opacity:1"
     inkscape:connector-curvature="0" />
  <path
     d="m 903.56816,155.21775 0,0"
     id="path3061"
     style="fill:#ffcb05;fill-opacity:1;stroke:#000000;stroke-width:0;stroke-opacity:1"
     inkscape:connector-curvature="0" />
</svg>
